<svg width="102" height="102" viewBox="0 0 102 102" fill="none" xmlns="http://www.w3.org/2000/svg">
<g clip-path="url(#clip0_959_5889)">
<path d="M86.8501 86.8509C106.667 67.0337 106.667 34.9038 86.8501 15.0867C67.033 -4.73048 34.9031 -4.73046 15.0859 15.0867C-4.7312 34.9038 -4.73118 67.0337 15.0859 86.8508C34.9031 106.668 67.033 106.668 86.8501 86.8509Z" fill="#52A65F"/>
<path d="M68.8106 90.7528C91.4329 81.7943 102.51 56.1931 93.5512 33.5708C84.5928 10.9485 58.9916 -0.128285 36.3693 8.83013C13.747 17.7885 2.67019 43.3898 11.6286 66.0121C20.587 88.6344 46.1883 99.7112 68.8106 90.7528Z" fill="#66DF79"/>
<path d="M93.363 30.1328C93.3941 30.1082 93.4187 30.0901 93.442 30.072C93.4678 30.0539 93.4976 30.0319 93.5338 30.0047C93.7214 29.8676 93.9077 29.7278 94.0953 29.592C94.5042 29.2957 94.9156 29.0033 95.3309 28.7161C95.6427 28.5001 95.9636 28.2982 96.278 28.0886C95.4758 26.5024 94.587 24.9486 93.6076 23.4348C87.1877 27.685 81.517 32.9352 77.4661 39.5763C75.5617 42.6982 74.1695 46.0854 73.0969 49.5748C72.5639 51.3084 72.0878 53.0577 71.5573 54.7927C71.3154 55.5832 71.0631 56.3698 70.7888 57.1487C70.64 57.5717 70.4848 57.9922 70.3218 58.4088C70.2933 58.48 70.2648 58.5511 70.2364 58.6223C70.248 58.5861 70.0151 59.1308 69.9802 59.2097C69.6438 59.9549 69.2738 60.6846 68.8636 61.391C68.6385 61.7779 68.4017 62.1583 68.1507 62.5296C68.0214 62.7211 67.8855 62.9061 67.7535 63.0963C67.7225 63.139 67.7031 63.1635 67.6824 63.192C67.6384 63.2476 67.5931 63.3046 67.5478 63.3589C66.9824 64.0498 66.3679 64.6993 65.7145 65.3061C65.4299 65.57 65.1375 65.8262 64.8386 66.0733C64.7157 66.1742 64.5915 66.2725 64.466 66.3709C64.4544 66.3722 63.9912 66.7163 63.92 66.7655C63.2136 67.252 62.4787 67.6957 61.7219 68.0968C61.3078 68.3154 60.8874 68.5225 60.4617 68.7152C60.3013 68.7877 60.1396 68.8563 59.9778 68.9261C59.9248 68.9468 59.6893 69.0439 59.5897 69.0814C58.1083 69.6312 56.5713 70.0271 55.0083 70.2574C54.9851 70.2613 54.7741 70.2872 54.681 70.2989C54.6241 70.304 54.5788 70.3092 54.5685 70.3105C54.1958 70.3467 53.8219 70.3752 53.4467 70.3933C52.6976 70.4308 51.9472 70.4334 51.1981 70.4024C50.5473 70.3752 49.8318 70.3778 49.1888 70.2393C49.1422 70.229 49.0982 70.2199 49.0724 70.216C48.8861 70.1876 48.7011 70.1565 48.516 70.1229C48.146 70.0569 47.7773 69.9832 47.4098 69.9016C46.675 69.7373 45.9465 69.542 45.2285 69.3156C44.9296 69.2211 44.6321 69.1215 44.3358 69.0167C44.1585 68.9533 43.9813 68.8886 43.8053 68.8213C43.6501 68.7618 42.8531 68.5393 43.5712 68.7346C42.9372 68.5626 42.2773 68.1563 41.6964 67.8562C41.0288 67.5107 40.3755 67.1355 39.7402 66.7331C39.4232 66.5326 39.1101 66.3243 38.8022 66.1095C38.6482 66.0021 38.4956 65.8934 38.3442 65.7822C38.3028 65.7524 37.7956 65.3928 38.1773 65.6619C38.5577 65.9297 38.0595 65.5661 38.0181 65.5325C37.8719 65.4147 37.727 65.2957 37.5834 65.1754C37.2483 64.8933 36.921 64.6035 36.6027 64.3034C36.102 63.8324 35.6207 63.3408 35.1627 62.8297C34.9337 62.5736 34.7099 62.3122 34.4926 62.0457C34.3929 61.9241 34.2985 61.8012 34.1988 61.6796L34.1963 61.6757C34.1536 61.6161 34.1096 61.5579 34.0669 61.4984C33.2194 60.3185 32.4898 59.0557 31.8881 57.7322C31.8092 57.5601 31.7368 57.3841 31.6591 57.2108C31.6488 57.1875 31.6423 57.1719 31.6332 57.1551C31.6319 57.1525 31.632 57.1525 31.6307 57.1499C31.4987 56.7942 31.3654 56.4397 31.2464 56.0787C31.0084 55.358 30.8039 54.627 30.6332 53.8883C30.4779 53.2077 30.364 52.5233 30.2528 51.835C30.2489 51.8078 30.245 51.7897 30.2424 51.769C30.2424 51.7652 30.2424 51.7626 30.2411 51.7574C30.2217 51.5685 30.201 51.3796 30.1842 51.1894C30.1505 50.8103 30.1247 50.4312 30.1079 50.0509C30.0768 49.3535 30.0729 48.6549 30.0988 47.9575C30.1117 47.5771 30.1337 47.1967 30.1635 46.8164C30.179 46.6262 30.1958 46.436 30.2153 46.2471C30.2204 46.1992 30.2308 46.0686 30.2411 45.9457C30.2398 45.9586 30.2398 45.9625 30.2385 45.9767C30.3511 44.5457 30.7664 43.0721 31.1946 41.7084C31.3085 41.3462 31.4301 40.9852 31.5608 40.6281C31.5905 40.5453 31.6747 40.3137 31.7368 40.143C31.9942 39.4572 32.3396 38.7909 32.6812 38.1453C33.0357 37.4751 33.4213 36.8205 33.8392 36.1865C34.0126 35.9226 34.1924 35.6625 34.3761 35.4051C34.477 35.264 34.5844 35.0635 34.7138 34.947C34.1536 35.4516 34.7371 34.9251 34.8652 34.7685C35.842 33.5834 36.9456 32.5082 38.1268 31.5262C38.4309 31.274 38.7362 31.0191 39.0558 30.7862C39.2227 30.6672 39.4814 30.4834 39.5552 30.4317C40.303 29.9038 41.0702 29.4057 41.8517 28.9296C43.2503 28.0783 44.6903 27.2981 46.1484 26.5529C52.1257 23.4982 58.4796 20.9805 63.5927 16.5091C66.135 14.2851 68.2607 11.5125 69.5908 8.39957C70.1613 7.06307 70.6103 5.69811 70.9635 4.31115C69.3204 3.60733 67.6462 2.99406 65.9513 2.47266C65.7728 3.23859 65.5631 3.99676 65.316 4.74328C65.197 5.10296 65.0624 5.45746 64.9266 5.81066C64.8813 5.91805 64.805 6.10437 64.7856 6.14706C64.6653 6.41488 64.5397 6.68011 64.4078 6.94146C64.0559 7.64269 63.66 8.32065 63.2252 8.97401C63.0169 9.28711 62.8061 9.61445 62.5654 9.90555C62.515 9.96377 62.4658 10.0207 62.4438 10.0479C62.3144 10.2044 62.1837 10.3584 62.0505 10.5111C61.0336 11.6768 59.8238 12.9822 58.5016 13.8115C58.5249 13.7973 58.543 13.7857 58.5637 13.7727C58.5042 13.8115 58.4485 13.8477 58.4201 13.8684C58.2545 13.9888 58.0889 14.1078 57.9207 14.2255C57.6128 14.4416 57.2996 14.6525 56.9852 14.8595C56.262 15.3343 55.5233 15.7833 54.7742 16.2154C51.8786 17.8831 48.8408 19.283 45.8417 20.7502C39.6406 23.7815 33.5416 27.2683 29.5269 33.0594C25.9366 38.2385 24.2896 44.9041 24.8499 51.1648C25.4347 57.6972 28.1995 63.8622 33.0901 68.3103C37.8991 72.6846 44.1352 75.2839 50.6159 75.7043C57.7395 76.1662 65.1129 73.5592 70.1432 68.4409C72.8977 65.6373 74.6534 62.1932 75.9498 58.5201C77.1543 55.1058 77.9396 51.5595 79.1869 48.1593C79.2645 47.9485 79.3434 47.7376 79.4249 47.5267C79.4404 47.4879 79.5323 47.2589 79.575 47.1502C79.7018 46.85 79.8312 46.5499 79.9657 46.2523C80.3746 45.3505 80.8209 44.4668 81.3009 43.6013C82.1445 42.0811 83.0915 40.6204 84.1266 39.2244C84.1615 39.1765 84.3414 38.9423 84.3918 38.875C84.4811 38.7625 84.5691 38.6486 84.6583 38.5373C84.9417 38.1841 85.2315 37.8348 85.5265 37.4894C86.1164 36.7985 86.7297 36.1244 87.3598 35.4698C88.6316 34.1488 89.9784 32.9015 91.3822 31.7229C92.0291 31.1782 92.6941 30.6529 93.363 30.1328Z" fill="#F4F5D0"/>
<path d="M69.8087 23.4544C49.7058 23.4045 33.4704 12.5976 50.2009 9.51221C66.931 6.42803 89.9138 23.5036 69.8087 23.4544Z" fill="white" fill-opacity="0.24"/>
</g>
<defs>
<clipPath id="clip0_959_5889">
<rect width="102" height="102" fill="white"/>
</clipPath>
</defs>
</svg>
