<svg width="32" height="32" viewBox="0 0 32 32" fill="none" xmlns="http://www.w3.org/2000/svg">
<g clip-path="url(#clip0_309_594)">
<path d="M4.06656 12.4133C4.00988 12.2441 3.98777 12.0651 4.00153 11.8872C4.01529 11.7092 4.06464 11.5358 4.14666 11.3773C4.22868 11.2187 4.3417 11.0783 4.47902 10.9643C4.61633 10.8502 4.77515 10.7649 4.94605 10.7134C5.11695 10.6619 5.29645 10.6452 5.47392 10.6643C5.65139 10.6835 5.82321 10.7381 5.97918 10.8248C6.13516 10.9116 6.27213 11.0289 6.38195 11.1696C6.49178 11.3103 6.57224 11.4716 6.61856 11.644C9.39989 20.9587 22.5946 20.96 25.3786 11.6493C25.4285 11.4814 25.5109 11.325 25.6213 11.1889C25.7317 11.0529 25.8678 10.9399 26.0218 10.8565C26.1758 10.773 26.3447 10.7207 26.519 10.7026C26.6932 10.6844 26.8693 10.7008 27.0372 10.7507C27.2051 10.8006 27.3616 10.883 27.4976 10.9934C27.6337 11.1038 27.7466 11.2399 27.8301 11.3939C27.9135 11.5479 27.9658 11.7168 27.984 11.8911C28.0021 12.0653 27.9858 12.2414 27.9359 12.4093C27.4508 14.0776 26.628 15.6283 25.5186 16.9653L27.2186 18.6667C27.4614 18.9181 27.5958 19.2549 27.5928 19.6045C27.5898 19.9541 27.4495 20.2885 27.2023 20.5358C26.9551 20.783 26.6207 20.9232 26.2711 20.9262C25.9215 20.9293 25.5847 20.7949 25.3332 20.552L23.5852 18.804C22.6418 19.5153 21.5998 20.0853 20.4919 20.496L20.9679 22.276C21.0187 22.4467 21.0347 22.6259 21.0151 22.8029C20.9955 22.98 20.9406 23.1513 20.8537 23.3068C20.7667 23.4623 20.6495 23.5987 20.509 23.7082C20.3684 23.8176 20.2074 23.8977 20.0353 23.9439C19.8633 23.99 19.6838 24.0013 19.5073 23.9769C19.3309 23.9525 19.1611 23.893 19.008 23.8019C18.8549 23.7108 18.7217 23.5899 18.6161 23.4465C18.5105 23.303 18.4347 23.1399 18.3932 22.9667L17.9079 21.1573C16.6452 21.344 15.3546 21.344 14.0919 21.1573L13.6066 22.9667C13.5651 23.1399 13.4893 23.303 13.3837 23.4465C13.2781 23.5899 13.1448 23.7108 12.9918 23.8019C12.8387 23.893 12.6689 23.9525 12.4925 23.9769C12.316 24.0013 12.1365 23.99 11.9644 23.9439C11.7924 23.8977 11.6313 23.8176 11.4908 23.7082C11.3502 23.5987 11.233 23.4623 11.1461 23.3068C11.0592 23.1513 11.0043 22.98 10.9847 22.8029C10.9651 22.6259 10.9811 22.4467 11.0319 22.276L11.5079 20.496C10.4 20.0849 9.35789 19.5144 8.41456 18.8027L6.66789 20.552C6.41788 20.8024 6.07865 20.9432 5.72483 20.9434C5.37101 20.9437 5.03159 20.8033 4.78122 20.5533C4.53086 20.3033 4.39007 19.9641 4.38982 19.6103C4.38957 19.2565 4.52988 18.917 4.77989 18.6667L6.47989 16.9667C5.43456 15.7187 4.59989 14.2013 4.06389 12.4147L4.06656 12.4133Z" fill="white" fill-opacity="0.7"/>
</g>
<defs>
<clipPath id="clip0_309_594">
<rect width="32" height="32" fill="white"/>
</clipPath>
</defs>
</svg>
