<svg width="32" height="32" viewBox="0 0 32 32" fill="none" xmlns="http://www.w3.org/2000/svg">
<g clip-path="url(#clip0_309_498)">
<path fill-rule="evenodd" clip-rule="evenodd" d="M5.33341 16.0014C5.33741 15.98 5.35608 15.8627 5.46008 15.632C5.57475 15.3774 5.76008 15.0574 6.02541 14.688C6.55608 13.9507 7.34941 13.0987 8.35208 12.2907C10.3694 10.6614 13.0827 9.33335 16.0001 9.33335C18.9174 9.33335 21.6307 10.6614 23.6481 12.288C24.6507 13.096 25.4441 13.948 25.9747 14.6854C26.2414 15.0547 26.4254 15.3747 26.5401 15.6294C26.6441 15.86 26.6627 15.9774 26.6667 15.9987V16C26.6627 16.0214 26.6441 16.1387 26.5401 16.3694C26.3827 16.7016 26.1934 17.0178 25.9747 17.3134C25.4441 18.0507 24.6507 18.9027 23.6481 19.7107C21.6321 21.3387 18.9187 22.6667 16.0001 22.6667C13.0827 22.6667 10.3694 21.3387 8.35208 19.712C7.34941 18.904 6.55608 18.052 6.02541 17.3147C5.80662 17.0192 5.61728 16.703 5.46008 16.3707C5.40181 16.2537 5.35922 16.1295 5.33341 16.0014ZM16.0001 6.66669C12.2894 6.66669 9.00275 8.33869 6.67875 10.212C5.50941 11.1534 4.54541 12.1774 3.86141 13.128C3.53752 13.568 3.25836 14.0392 3.02808 14.5347C2.83075 14.9734 2.66675 15.4814 2.66675 16C2.66675 16.5174 2.83075 17.028 3.02675 17.4654C3.23341 17.9214 3.52008 18.3987 3.86141 18.872C4.54541 19.8227 5.50941 20.8454 6.67875 21.788C9.00275 23.6614 12.2894 25.3334 16.0001 25.3334C19.7107 25.3334 22.9974 23.6614 25.3214 21.788C26.4907 20.8467 27.4547 19.8227 28.1387 18.872C28.4814 18.3974 28.7667 17.9214 28.9721 17.4654C29.1694 17.028 29.3334 16.5187 29.3334 16C29.3334 15.4827 29.1694 14.972 28.9734 14.5347C28.7424 14.0393 28.4628 13.5681 28.1387 13.128C27.4547 12.1774 26.4907 11.1547 25.3214 10.212C22.9974 8.33869 19.7107 6.66669 16.0001 6.66669ZM14.6667 16C14.6667 15.6464 14.8072 15.3073 15.0573 15.0572C15.3073 14.8072 15.6465 14.6667 16.0001 14.6667C16.3537 14.6667 16.6928 14.8072 16.9429 15.0572C17.1929 15.3073 17.3334 15.6464 17.3334 16C17.3334 16.3536 17.1929 16.6928 16.9429 16.9428C16.6928 17.1929 16.3537 17.3334 16.0001 17.3334C15.6465 17.3334 15.3073 17.1929 15.0573 16.9428C14.8072 16.6928 14.6667 16.3536 14.6667 16ZM16.0001 12C14.9392 12 13.9218 12.4214 13.1717 13.1716C12.4215 13.9217 12.0001 14.9392 12.0001 16C12.0001 17.0609 12.4215 18.0783 13.1717 18.8284C13.9218 19.5786 14.9392 20 16.0001 20C17.0609 20 18.0784 19.5786 18.8285 18.8284C19.5787 18.0783 20.0001 17.0609 20.0001 16C20.0001 14.9392 19.5787 13.9217 18.8285 13.1716C18.0784 12.4214 17.0609 12 16.0001 12Z" fill="white" fill-opacity="0.7"/>
</g>
<defs>
<clipPath id="clip0_309_498">
<rect width="32" height="32" fill="white"/>
</clipPath>
</defs>
</svg>
