<svg width="30" height="32" viewBox="0 0 30 32" fill="none" xmlns="http://www.w3.org/2000/svg">
<g clip-path="url(#clip0_309_570)">
<path d="M29.9857 16.2994C29.9857 14.9883 29.8836 14.0316 29.6627 13.0395H15.2988V18.9568H23.7301C23.5602 20.4274 22.6423 22.642 20.6024 24.1301L20.5738 24.3282L25.1154 27.9951L25.43 28.0279C28.3198 25.2463 29.9857 21.1537 29.9857 16.2994Z" fill="#4285F4"/>
<path d="M15.2988 31.8901C19.4295 31.8901 22.8971 30.4727 25.43 28.0278L20.6024 24.1301C19.3105 25.0691 17.5766 25.7246 15.2988 25.7246C11.2532 25.7246 7.81945 22.9431 6.59543 19.0986L6.41602 19.1145L1.69359 22.9236L1.63184 23.1025C4.14762 28.3112 9.31523 31.8901 15.2988 31.8901Z" fill="#34A853"/>
<path d="M6.59543 19.0986C6.27246 18.1065 6.08555 17.0434 6.08555 15.945C6.08555 14.8465 6.27246 13.7836 6.57844 12.7915L6.56988 12.5802L1.78828 8.70987L1.63184 8.78743C0.594961 10.9489 0 13.3761 0 15.945C0 18.514 0.594961 20.9411 1.63184 23.1025L6.59543 19.0986Z" fill="#FBBC05"/>
<path d="M15.2988 6.16537C18.1716 6.16537 20.1094 7.45869 21.2143 8.53948L25.532 4.14571C22.8803 1.57679 19.4295 0 15.2988 0C9.31523 0 4.14762 3.57875 1.63184 8.78742L6.57844 12.7915C7.81945 8.94693 11.2532 6.16537 15.2988 6.16537Z" fill="#EB4335"/>
</g>
<defs>
<clipPath id="clip0_309_570">
<rect width="30" height="32" fill="white"/>
</clipPath>
</defs>
</svg>
