<svg width="34" height="34" viewBox="0 0 34 34" xmlns="http://www.w3.org/2000/svg">
<g transform="translate(-11, -11)">
<path d="M25.984 12.7148C26.5541 12.2524 27.2659 12 28 12C28.7341 12 29.4459 12.2524 30.016 12.7148L42.2208 22.6014C42.7758 23.0508 43.2235 23.6183 43.5313 24.2625C43.839 24.9068 43.9992 25.6117 44 26.3257V40.8004C44 41.649 43.6629 42.4628 43.0627 43.0629C42.4626 43.6629 41.6487 44 40.8 44H36C35.1513 44 34.3374 43.6629 33.7373 43.0629C33.1371 42.4628 32.8 41.649 32.8 40.8004V32.8016C32.8 32.3773 32.6314 31.9704 32.3314 31.6704C32.0313 31.3703 31.6243 31.2018 31.2 31.2018H24.8C24.3757 31.2018 23.9687 31.3703 23.6686 31.6704C23.3686 31.9704 23.2 32.3773 23.2 32.8016V40.8004C23.2 41.649 22.8629 42.4628 22.2627 43.0629C21.6626 43.6629 20.8487 44 20 44H15.2C14.3513 44 13.5374 43.6629 12.9373 43.0629C12.3371 42.4628 12 41.649 12 40.8004V26.3289C11.9999 25.6138 12.1595 24.9077 12.4674 24.2622C12.7752 23.6168 13.2234 23.0482 13.7792 22.5982L25.984 12.7148Z"/>
</g>
</svg>
