<svg width="34" height="34" viewBox="0 0 34 34" fill="none" xmlns="http://www.w3.org/2000/svg">
<path d="M15.362 4.58077C15.8252 4.20505 16.4035 4 17 4C17.5965 4 18.1748 4.20505 18.638 4.58077L28.5544 12.6136C29.0053 12.9787 29.3691 13.4398 29.6191 13.9633C29.8692 14.4868 29.9993 15.0595 30 15.6396V27.4004C30 28.0898 29.7261 28.7511 29.2385 29.2386C28.7509 29.7261 28.0896 30 27.4 30H23.5C22.8104 30 22.1491 29.7261 21.6615 29.2386C21.1739 28.7511 20.9 28.0898 20.9 27.4004V20.9013C20.9 20.5565 20.763 20.2259 20.5192 19.9822C20.2754 19.7384 19.9448 19.6015 19.6 19.6015H14.4C14.0552 19.6015 13.7246 19.7384 13.4808 19.9822C13.237 20.2259 13.1 20.5565 13.1 20.9013V27.4004C13.1 28.0898 12.8261 28.7511 12.3385 29.2386C11.8509 29.7261 11.1896 30 10.5 30H6.6C5.91044 30 5.24912 29.7261 4.76152 29.2386C4.27393 28.7511 4 28.0898 4 27.4004V15.6422C3.99989 15.0612 4.12963 14.4875 4.37974 13.9631C4.62985 13.4386 4.99401 12.9767 5.4456 12.611L15.362 4.58077Z" stroke="#6A54E9" stroke-width="3"/>
</svg>
