<svg width="30" height="28" viewBox="0 0 30 28" fill="none" xmlns="http://www.w3.org/2000/svg">
<path d="M30 17C30 17.3769 29.8483 17.7383 29.5782 18.0048C29.3082 18.2713 28.9419 18.4211 28.56 18.4211H7.44C7.05809 18.4211 6.69182 18.2713 6.42177 18.0048C6.15171 17.7383 6 17.3769 6 17C6 16.6231 6.15171 16.2617 6.42177 15.9952C6.69182 15.7287 7.05809 15.5789 7.44 15.5789H28.56C28.9419 15.5789 29.3082 15.7287 29.5782 15.9952C29.8483 16.2617 30 16.6231 30 17ZM7.44 10.8421H28.56C28.9419 10.8421 29.3082 10.6924 29.5782 10.4259C29.8483 10.1594 30 9.79794 30 9.42105C30 9.04417 29.8483 8.68272 29.5782 8.41622C29.3082 8.14972 28.9419 8 28.56 8H7.44C7.05809 8 6.69182 8.14972 6.42177 8.41622C6.15171 8.68272 6 9.04417 6 9.42105C6 9.79794 6.15171 10.1594 6.42177 10.4259C6.69182 10.6924 7.05809 10.8421 7.44 10.8421ZM28.56 23.1579H7.44C7.05809 23.1579 6.69182 23.3076 6.42177 23.5741C6.15171 23.8406 6 24.2021 6 24.5789C6 24.9558 6.15171 25.3173 6.42177 25.5838C6.69182 25.8503 7.05809 26 7.44 26H28.56C28.9419 26 29.3082 25.8503 29.5782 25.5838C29.8483 25.3173 30 24.9558 30 24.5789C30 24.2021 29.8483 23.8406 29.5782 23.5741C29.3082 23.3076 28.9419 23.1579 28.56 23.1579Z" fill="#fff" stroke="#fff" stroke-width="0.4"/>
</svg>
