<svg width="34" height="34" viewBox="0 0 34 34" xmlns="http://www.w3.org/2000/svg">
<path fill-rule="evenodd" fill="#6A54E9" clip-rule="evenodd" d="M20.7143 10.5C20.7143 11.4851 20.323 12.4298 19.6264 13.1264C18.9298 13.823 17.9851 14.2143 17 14.2143C16.0149 14.2143 15.0702 13.823 14.3736 13.1264C13.677 12.4298 13.2857 11.4851 13.2857 10.5C13.2857 9.51491 13.677 8.57017 14.3736 7.8736C15.0702 7.17704 16.0149 6.78571 17 6.78571C17.9851 6.78571 18.9298 7.17704 19.6264 7.8736C20.323 8.57017 20.7143 9.51491 20.7143 10.5ZM23.5 10.5C23.5 12.2239 22.8152 13.8772 21.5962 15.0962C20.3772 16.3152 18.7239 17 17 17C15.2761 17 13.6228 16.3152 12.4038 15.0962C11.1848 13.8772 10.5 12.2239 10.5 10.5C10.5 8.77609 11.1848 7.12279 12.4038 5.90381C13.6228 4.68482 15.2761 4 17 4C18.7239 4 20.3772 4.68482 21.5962 5.90381C22.8152 7.12279 23.5 8.77609 23.5 10.5ZM6.78571 25.3571C6.78571 24.9783 7.19429 23.8547 9.23714 22.6476C11.1277 21.5314 13.88 20.7143 17 20.7143C20.12 20.7143 22.8723 21.5314 24.7629 22.6476C26.8057 23.8547 27.2143 24.9783 27.2143 25.3571C27.2143 25.8497 27.0186 26.3221 26.6703 26.6703C26.3221 27.0186 25.8497 27.2143 25.3571 27.2143H8.64286C8.15031 27.2143 7.67794 27.0186 7.32966 26.6703C6.98138 26.3221 6.78571 25.8497 6.78571 25.3571ZM17 17.9286C9.85 17.9286 4 21.6429 4 25.3571C4 26.5885 4.48916 27.7694 5.35986 28.6401C6.23057 29.5108 7.41149 30 8.64286 30H25.3571C26.5885 30 27.7694 29.5108 28.6401 28.6401C29.5108 27.7694 30 26.5885 30 25.3571C30 21.6429 24.15 17.9286 17 17.9286Z"/>
</svg>
