<svg width="89" height="89" viewBox="0 0 89 89" fill="none" xmlns="http://www.w3.org/2000/svg">
<circle cx="44.5" cy="44.5" r="44.5" fill="#6A54E9"/>
<path fill-rule="evenodd" clip-rule="evenodd" d="M10.2071 72.8612C11.2315 71.1291 12.6585 69.6084 14.4413 68.4517L15.4741 67.7816C33.6674 55.978 57.1011 55.978 75.2945 67.7816L76.3273 68.4517C77.6831 69.3314 78.8332 70.4215 79.7568 71.6551C85.5526 64.1413 89 54.7233 89 44.5C89 19.9233 69.0767 0 44.5 0C19.9233 0 0 19.9233 0 44.5C0 55.2779 3.83167 65.161 10.2071 72.8612ZM61.0095 38.6249C61.0095 47.2543 54.014 54.2497 45.3846 54.2497C36.7553 54.2497 29.7598 47.2543 29.7598 38.6249C29.7598 29.9955 36.7553 23 45.3846 23C54.014 23 61.0095 29.9955 61.0095 38.6249Z" fill="white"/>
</svg>
