<svg width="56" height="54" viewBox="0 0 56 54" fill="none" xmlns="http://www.w3.org/2000/svg">
<ellipse cx="28.4706" cy="27" rx="27.5294" ry="27" fill="white"/>
<path d="M55.5 27C55.5 41.6264 43.4077 53.5 28.4706 53.5C13.5334 53.5 1.44116 41.6264 1.44116 27C1.44116 12.3736 13.5334 0.5 28.4706 0.5C43.4077 0.5 55.5 12.3736 55.5 27Z" stroke="black" stroke-opacity="0.16"/>
<path fill-rule="evenodd" clip-rule="evenodd" d="M25.8419 18.0991C24.1318 18.0991 22.4917 18.7653 21.2825 19.9513C20.0733 21.1372 19.3939 22.7456 19.3939 24.4228C19.3939 26.1 20.0733 27.7084 21.2825 28.8943C22.4917 30.0803 24.1318 30.7465 25.8419 30.7465C27.552 30.7465 29.1921 30.0803 30.4014 28.8943C31.6106 27.7084 32.2899 26.1 32.2899 24.4228C32.2899 22.7456 31.6106 21.1372 30.4014 19.9513C29.1921 18.7653 27.552 18.0991 25.8419 18.0991ZM16.1699 24.4228C16.1697 22.9299 16.5288 21.4581 17.218 20.127C17.9072 18.7959 18.907 17.6432 20.1361 16.7625C21.3652 15.8818 22.7889 15.298 24.2914 15.0587C25.7939 14.8194 27.3328 14.9313 28.783 15.3852C30.2331 15.8391 31.5535 16.6224 32.6368 17.6711C33.7201 18.7199 34.5357 20.0046 35.0172 21.4208C35.4988 22.837 35.6327 24.3447 35.4081 25.8212C35.1835 27.2977 34.6067 28.7014 33.7246 29.9181L41.4896 37.5334C41.7833 37.8316 41.9457 38.2309 41.9421 38.6454C41.9384 39.06 41.7689 39.4565 41.47 39.7496C41.1711 40.0427 40.7668 40.209 40.3441 40.2126C39.9215 40.2162 39.5143 40.0568 39.2103 39.7688L31.4469 32.1551C29.9999 33.1642 28.2976 33.7632 26.5265 33.8864C24.7554 34.0097 22.984 33.6524 21.4062 32.8538C19.8284 32.0553 18.5052 30.8461 17.5816 29.359C16.658 27.8719 16.1696 26.1641 16.1699 24.4228Z" fill="#6A54E9"/>
</svg>
