<svg width="34" height="34" viewBox="0 0 34 34" fill="none" xmlns="http://www.w3.org/2000/svg">
<path d="M6.0089 19.594C5.33587 18.3854 5 17.7798 5 17.1195C5 16.4592 5.33587 15.8549 6.0089 14.6462L7.72389 11.5597L9.53812 8.53051C10.2493 7.3435 10.6043 6.74936 11.1755 6.41857C11.748 6.08906 12.4389 6.07888 13.8218 6.05598L17.3548 6L20.8853 6.05598C22.2695 6.07888 22.9604 6.08906 23.5316 6.41984C24.1041 6.75063 24.4604 7.3435 25.1703 8.53051L26.9858 11.5597L28.7033 14.6462C29.3751 15.8549 29.7109 16.4592 29.7109 17.1195C29.7109 17.7798 29.3751 18.3841 28.702 19.5927L26.9858 22.6792L25.1715 25.7084C24.4604 26.8955 24.1054 27.4896 23.5342 27.8204C22.9616 28.1499 22.2708 28.1601 20.8879 28.183L17.3548 28.239L13.8243 28.183C12.4401 28.1601 11.7493 28.1499 11.1781 27.8191C10.6055 27.4883 10.2493 26.8955 9.53939 25.7084L7.72389 22.6792L6.0089 19.594Z" stroke="white" stroke-width="3"/>
<path d="M17.3548 20.9367C19.4628 20.9367 21.1716 19.2279 21.1716 17.12C21.1716 15.012 19.4628 13.3032 17.3548 13.3032C15.2469 13.3032 13.5381 15.012 13.5381 17.12C13.5381 19.2279 15.2469 20.9367 17.3548 20.9367Z" stroke="white" stroke-width="3"/>
</svg>
