<svg width="34" height="34" viewBox="0 0 34 34" fill="none" xmlns="http://www.w3.org/2000/svg">
<path d="M17 28C18.9762 26.7767 21.218 26.1327 23.5 26.1327C25.1899 26.1327 26.8578 26.4859 28.4121 27.1659C29.1299 27.48 30 26.9884 30 26.2049V7.86734C28.0238 6.64402 25.782 6 23.5 6C21.218 6 18.9762 6.64402 17 7.86734V28Z" fill="#6A54E9"/>
<path d="M4 26.2049C4 26.9884 4.87012 27.48 5.58792 27.1659C7.14223 26.4859 8.81009 26.1327 10.5 26.1327C12.782 26.1327 15.0238 26.7767 17 28V7.86734C15.0238 6.64402 12.782 6 10.5 6C8.21802 6 5.97625 6.64402 4 7.86734V26.2049Z" fill="#6A54E9"/>
<path d="M17 28C15.0238 26.7767 12.782 26.1327 10.5 26.1327C8.81009 26.1327 7.14223 26.4859 5.58792 27.1659C4.87012 27.48 4 26.9884 4 26.2049V7.86734C5.97625 6.64402 8.21802 6 10.5 6C12.782 6 15.0238 6.64402 17 7.86734M17 28C18.9762 26.7767 21.218 26.1327 23.5 26.1327C25.1899 26.1327 26.8578 26.4859 28.4121 27.1659C29.1299 27.48 30 26.9884 30 26.2049V7.86734C28.0238 6.64402 25.782 6 23.5 6C21.218 6 18.9762 6.64402 17 7.86734M17 28V7.86734" stroke="#6A54E9" stroke-width="3" stroke-linecap="round" stroke-linejoin="round"/>
</svg>
