<svg width="34" height="34" viewBox="0 0 34 34" xmlns="http://www.w3.org/2000/svg">
<path fill-rule="evenodd" fill="#6A54E9" clip-rule="evenodd" d="M15.7694 28.45C15.3847 28.2078 14.9859 27.9898 14.5752 27.7971C13.549 27.3129 12.1798 26.8571 10.7 26.8571C8.9094 26.8571 7.2868 27.5257 6.248 28.0886C5.92015 28.2637 5.55471 28.3529 5.18466 28.3479C4.81461 28.3429 4.4516 28.244 4.1284 28.06C3.78896 27.8733 3.50505 27.5967 3.3065 27.2594C3.10795 26.922 3.00208 26.5364 3 26.1429V8.28571C3 7.39857 3.413 6.48143 4.2572 5.95857C5.3408 5.28714 7.7796 4 10.7 4C12.9134 4 15.103 4.72857 17 5.87143C18.897 4.72857 21.0866 4 23.3 4C26.2204 4 28.6592 5.28571 29.7428 5.95857C30.587 6.48143 31 7.39857 31 8.28571V26.1429C31 27.0471 30.4694 27.7229 29.8716 28.06C29.5482 28.2442 29.185 28.3433 28.8146 28.3483C28.4443 28.3533 28.0786 28.264 27.7506 28.0886C26.7132 27.5257 25.0906 26.8571 23.3 26.8571C21.8202 26.8571 20.451 27.3143 19.4248 27.7971C19.0141 27.9898 18.6153 28.2078 18.2306 28.45C17.833 28.7029 17.497 29 17.0014 29C16.503 29 16.1684 28.7029 15.7694 28.45ZM5.8 25.1343V8.34571C6.7422 7.77429 8.6 6.85714 10.7 6.85714C12.422 6.85714 14.1272 7.45429 15.6 8.34571V25.1343C14.361 24.5686 12.6418 24 10.7 24C8.7666 24 7.0474 24.5643 5.8 25.1343ZM18.4 25.1343C19.639 24.5686 21.3582 24 23.3 24C25.2334 24 26.9526 24.5643 28.2 25.1343V8.34571C27.2578 7.77429 25.4 6.85714 23.3 6.85714C21.578 6.85714 19.8728 7.45429 18.4 8.34571V25.1343Z"/>
</svg>
